<svg width="478" height="420" viewBox="0 0 478 420" fill="none" xmlns="http://www.w3.org/2000/svg">
<path d="M145.273 408C55.2108 367.873 24.8351 241.721 61.1547 150.278C101.435 48.8633 211.258 21.6044 230.131 17.3138C295.791 2.41022 410.453 4.70615 455.867 80.4455C506.345 164.624 434.05 277.425 384.195 328.295C371.132 341.616 254.95 456.857 145.273 408Z" fill="#F8F8F8"/>
<path d="M382.289 294.832L183.119 233.739L233.315 51.8702L439.662 86.9728L382.289 294.832ZM185.188 232.609L381.127 292.716L437.541 88.3189L234.535 53.7862L185.188 232.609Z" fill="#444444"/>
<path d="M86.5733 415.765L86.1756 415.022L17.5318 286.982L97.7265 243.989L111.122 268.967L166.77 372.769L166.027 373.167L86.5733 415.765ZM19.8129 287.673L87.2635 413.482L164.488 372.075L109.637 269.758L97.0394 246.27L87.0275 251.638L19.8129 287.673Z" fill="#444444"/>
<g style="mix-blend-mode:multiply" opacity="0.2">
<path d="M421.364 267.157C452.154 267.157 477.114 242.197 477.114 211.408C477.114 180.618 452.154 155.658 421.364 155.658C390.574 155.658 365.614 180.618 365.614 211.408C365.614 242.197 390.574 267.157 421.364 267.157Z" fill="#B6B6B6"/>
</g>
<path d="M415.845 267.157C446.634 267.157 471.594 242.197 471.594 211.408C471.594 180.618 446.634 155.658 415.845 155.658C385.055 155.658 360.095 180.618 360.095 211.408C360.095 242.197 385.055 267.157 415.845 267.157Z" fill="#F9C067"/>
<g style="mix-blend-mode:multiply" opacity="0.2">
<path d="M368.868 283.185C368.868 283.185 428.105 101.721 426.421 101.721C424.736 101.721 406.628 98.3516 406.628 98.3516L368.868 283.185Z" fill="#B6B6B6"/>
</g>
<g style="mix-blend-mode:multiply" opacity="0.2">
<path d="M259.596 383.29L329.948 271.392L259.596 251.693V383.29Z" fill="#B6B6B6"/>
</g>
<g style="mix-blend-mode:multiply" opacity="0.2">
<path d="M311.22 324.479C306.471 324.479 302.051 325.645 298.351 327.645L286.638 318.277C288.636 315.418 289.785 312.104 289.785 308.566C289.785 297.82 279.247 289.109 266.24 289.109C253.233 289.109 242.695 297.82 242.695 308.566C242.695 319.313 253.232 328.022 266.24 328.022C272.64 328.022 278.44 325.91 282.683 322.486L293.496 331.134C289.875 334.556 287.676 339.032 287.676 343.934C287.676 354.681 298.213 363.391 311.22 363.391C324.227 363.391 334.764 354.681 334.764 343.934C334.764 333.188 324.222 324.479 311.22 324.479Z" fill="#B6B6B6"/>
</g>
<path d="M146.957 368.963L68.246 411.161L0 283.866L67.9551 247.433L78.7106 241.668L91.7071 265.903L146.957 368.963Z" fill="#3D3D3D"/>
<path d="M27.4754 285.809L30.6099 284.131L29.2653 281.625L19.9761 286.609L21.3118 289.111L24.4671 287.422L29.9094 297.575L32.9133 295.966L27.4754 285.809Z" fill="#D5D5D5"/>
<path d="M44.1245 281.79C43.2103 280.092 41.9508 278.824 40.346 277.986C38.7411 277.148 37.0547 277.202 35.2866 278.149C33.5383 279.085 32.5226 280.425 32.2397 282.168C31.9567 283.911 32.3119 285.708 33.3053 287.557C34.2789 289.372 35.575 290.67 37.1937 291.45C38.8124 292.229 40.4736 292.163 42.1774 291.251C43.9583 290.295 44.974 288.939 45.2243 287.181C45.4766 285.426 45.1056 283.63 44.1245 281.79ZM40.9649 288.783C39.4095 289.617 37.8986 288.664 36.4323 285.926C34.966 283.187 35.0105 281.406 36.5659 280.583C38.0708 279.778 39.5579 280.743 41.0272 283.48C42.4965 286.217 42.4757 287.984 40.9649 288.783Z" fill="#D5D5D5"/>
<path d="M61.1772 272.626C60.4025 271.185 59.4576 270.157 58.3425 269.542C57.2275 268.928 56.1658 268.609 55.1576 268.587C54.1499 268.566 52.8617 268.974 51.2855 269.821L47.4268 271.899L54.2137 284.554L58.5696 282.221C60.4446 281.214 61.5918 279.817 62.0113 278.029C62.4308 276.241 62.1528 274.44 61.1772 272.626ZM58.8219 277.45C58.7299 278.538 58.1447 279.371 57.0662 279.949L55.8448 280.605L51.5853 272.661L52.832 271.991C53.3826 271.674 54.0088 271.512 54.6441 271.522C55.2288 271.549 55.8477 271.81 56.4978 272.298C57.1572 272.806 57.699 273.45 58.0858 274.186C58.6661 275.277 58.9154 276.358 58.8219 277.45Z" fill="#D5D5D5"/>
<path d="M73.3233 266.135C72.4844 264.51 71.1663 263.182 69.5477 262.331C68.6559 261.847 67.6352 261.654 66.6284 261.779C65.877 261.882 65.1513 262.123 64.4883 262.491C62.74 263.43 61.7249 264.771 61.4429 266.515C61.1609 268.258 61.5146 270.054 62.504 271.902C63.2718 273.326 64.234 274.43 65.3906 275.213C65.7103 275.433 66.0468 275.628 66.3969 275.795C68.0146 276.575 69.6758 276.507 71.3806 275.593C73.1615 274.64 74.1767 273.285 74.426 271.527C74.6753 269.768 74.3078 267.971 73.3233 266.135ZM70.1666 273.128C68.6765 273.929 67.226 273.085 65.8151 270.596C65.7528 270.491 65.6934 270.381 65.634 270.273C64.1677 267.538 64.2127 265.754 65.7691 264.922C65.9553 264.82 66.1552 264.744 66.3628 264.698C67.6658 264.401 68.955 265.44 70.2304 267.815C71.6937 270.554 71.6725 272.325 70.1666 273.128Z" fill="#D5D5D5"/>
<path d="M37.5736 322.762C41.9132 321.921 44.7493 317.721 43.9081 313.381C43.0669 309.042 38.867 306.206 34.5274 307.047C30.1877 307.888 27.3517 312.088 28.1928 316.428C29.034 320.767 33.2339 323.603 37.5736 322.762Z" fill="#D5D5D5"/>
<path d="M90.3136 289.594L51.0317 310.654C50.6462 310.861 50.2238 310.989 49.7886 311.033C49.3533 311.076 48.9138 311.033 48.4951 310.907C48.0765 310.78 47.6868 310.573 47.3484 310.295C47.01 310.018 46.7295 309.677 46.523 309.292C46.3163 308.906 46.1877 308.484 46.1443 308.049C46.101 307.613 46.1438 307.174 46.2703 306.755C46.3968 306.336 46.6046 305.947 46.8817 305.608C47.1588 305.27 47.4999 304.99 47.8854 304.783L87.1672 283.723C87.5526 283.516 87.9749 283.387 88.4101 283.344C88.8454 283.3 89.2849 283.343 89.7036 283.469C90.1224 283.596 90.5121 283.803 90.8505 284.081C91.1889 284.358 91.4694 284.699 91.676 285.084C92.0933 285.863 92.1843 286.776 91.9288 287.621C91.6733 288.467 91.0923 289.177 90.3136 289.594Z" fill="#D5D5D5"/>
<path d="M47.6586 344.42C52.0787 344.362 55.6149 340.732 55.557 336.312C55.4992 331.892 51.8691 328.356 47.4491 328.413C43.029 328.471 39.4928 332.101 39.5506 336.521C39.6085 340.941 43.2386 344.478 47.6586 344.42Z" fill="#D5D5D5"/>
<path d="M101.84 311.094L62.5579 332.161C62.1724 332.368 61.75 332.496 61.3147 332.54C60.8794 332.583 60.4398 332.54 60.0211 332.414C59.6024 332.287 59.2127 332.08 58.8743 331.802C58.5359 331.525 58.2555 331.184 58.0491 330.798C57.6317 330.02 57.5406 329.108 57.7958 328.262C58.051 327.416 58.6317 326.707 59.41 326.289L98.6933 305.23C99.0788 305.023 99.5013 304.894 99.9365 304.851C100.372 304.808 100.811 304.851 101.23 304.977C101.649 305.104 102.038 305.311 102.377 305.588C102.715 305.866 102.996 306.207 103.202 306.592C103.617 307.37 103.707 308.281 103.451 309.124C103.196 309.968 102.616 310.676 101.84 311.094Z" fill="#D5D5D5"/>
<path d="M59.0923 365.914C63.5127 365.914 67.0962 362.331 67.0962 357.91C67.0962 353.49 63.5127 349.906 59.0923 349.906C54.6718 349.906 51.0884 353.49 51.0884 357.91C51.0884 362.331 54.6718 365.914 59.0923 365.914Z" fill="#D5D5D5"/>
<path d="M113.365 332.593L74.0819 353.652C73.3035 354.07 72.3912 354.161 71.5456 353.906C70.7001 353.65 69.9905 353.07 69.5731 352.291C69.3662 351.906 69.2373 351.484 69.1938 351.048C69.1502 350.613 69.1928 350.174 69.3192 349.755C69.4456 349.336 69.6533 348.947 69.9304 348.608C70.2074 348.27 70.5485 347.989 70.934 347.783L110.217 326.721C110.603 326.515 111.025 326.386 111.461 326.343C111.896 326.299 112.335 326.342 112.754 326.469C113.173 326.595 113.562 326.803 113.901 327.08C114.239 327.357 114.52 327.698 114.726 328.084C115.144 328.862 115.235 329.775 114.979 330.62C114.724 331.466 114.144 332.175 113.365 332.593Z" fill="#D5D5D5"/>
<path d="M70.6178 387.413C75.0383 387.413 78.6217 383.83 78.6217 379.409C78.6217 374.989 75.0383 371.405 70.6178 371.405C66.1974 371.405 62.614 374.989 62.614 379.409C62.614 383.83 66.1974 387.413 70.6178 387.413Z" fill="#D5D5D5"/>
<path d="M124.892 354.092L85.6121 375.151C84.8337 375.569 83.9214 375.66 83.0759 375.405C82.2303 375.149 81.5208 374.569 81.1033 373.79C80.8967 373.405 80.7681 372.983 80.7247 372.547C80.6814 372.112 80.7242 371.673 80.8507 371.254C80.9772 370.835 81.1849 370.446 81.4621 370.107C81.7392 369.769 82.0802 369.488 82.4658 369.282L121.748 348.222C122.526 347.805 123.438 347.713 124.284 347.969C125.129 348.224 125.839 348.805 126.256 349.583C126.463 349.968 126.592 350.391 126.635 350.826C126.678 351.262 126.635 351.701 126.508 352.12C126.382 352.538 126.174 352.928 125.897 353.266C125.619 353.605 125.278 353.885 124.892 354.092Z" fill="#D5D5D5"/>
<g style="mix-blend-mode:multiply" opacity="0.2">
<path d="M91.7071 265.903L81.1965 286.925L76.0318 297.254L62.2858 324.742L60.4826 328.344L60.7394 325.571L62.694 304.403L63.4271 296.45L65.3906 275.213L65.8151 270.596L66.3583 264.698L66.6284 261.779L67.9552 247.433L78.7106 241.668L91.7071 265.903Z" fill="#B6B6B6"/>
</g>
<path d="M400.917 238.216C399.889 238.116 398.891 237.814 397.98 237.328C397.069 236.842 396.263 236.181 395.608 235.382L380.55 217.055C379.292 215.437 378.715 213.392 378.942 211.355C379.169 209.318 380.182 207.449 381.766 206.148C383.349 204.847 385.378 204.215 387.421 204.388C389.463 204.56 391.358 205.523 392.701 207.071L402.768 219.326L434.111 193.573C434.904 192.882 435.828 192.357 436.828 192.029C437.828 191.702 438.883 191.578 439.932 191.665C440.98 191.753 442 192.05 442.932 192.538C443.864 193.027 444.688 193.698 445.356 194.511C446.024 195.324 446.522 196.262 446.82 197.271C447.119 198.28 447.212 199.338 447.094 200.384C446.977 201.429 446.65 202.441 446.135 203.358C445.619 204.275 444.925 205.079 444.093 205.724L406.676 236.466C405.878 237.122 404.959 237.614 403.971 237.915C402.983 238.215 401.945 238.317 400.917 238.216Z" fill="white"/>
<path d="M317.609 353.575C317.331 353.324 317.106 353.02 316.946 352.682C316.786 352.344 316.694 351.978 316.676 351.604C316.657 351.23 316.713 350.856 316.839 350.504C316.964 350.152 317.159 349.827 317.41 349.55C320.147 346.528 315.555 341.776 315.507 341.729L248.573 281.086C248.296 280.835 248.071 280.531 247.911 280.193C247.751 279.854 247.659 279.488 247.64 279.114C247.622 278.74 247.677 278.367 247.803 278.014C247.929 277.662 248.124 277.338 248.375 277.06C248.626 276.783 248.93 276.558 249.268 276.398C249.606 276.238 249.973 276.146 250.347 276.127C250.721 276.109 251.094 276.164 251.447 276.291C251.799 276.417 252.123 276.611 252.401 276.862L319.458 337.621C322.496 340.712 326.68 347.811 321.635 353.378C321.127 353.938 320.418 354.273 319.663 354.31C318.908 354.347 318.169 354.083 317.609 353.575Z" fill="#636466"/>
<path d="M251.075 293.291C251.352 293.543 251.677 293.737 252.029 293.863C252.381 293.989 252.755 294.044 253.129 294.026C253.503 294.007 253.869 293.915 254.207 293.755C254.545 293.595 254.849 293.37 255.1 293.093C257.838 290.072 263.019 294.176 263.071 294.218L330.005 354.868C330.282 355.127 330.606 355.328 330.961 355.46C331.316 355.592 331.693 355.652 332.072 355.637C332.45 355.621 332.821 355.53 333.164 355.37C333.507 355.21 333.814 354.982 334.068 354.702C334.322 354.421 334.518 354.093 334.644 353.736C334.77 353.379 334.823 353.001 334.801 352.623C334.78 352.245 334.683 351.875 334.516 351.535C334.35 351.195 334.118 350.892 333.833 350.643L266.776 289.884C263.401 287.163 255.925 283.698 250.882 289.265C250.374 289.825 250.109 290.563 250.145 291.318C250.181 292.073 250.516 292.783 251.075 293.291Z" fill="#636466"/>
<path opacity="0.28" d="M281.273 308.279C289.575 299.977 289.575 286.517 281.273 278.215C272.971 269.913 259.51 269.913 251.208 278.215C242.906 286.517 242.906 299.977 251.208 308.279C259.51 316.581 272.971 316.581 281.273 308.279Z" fill="#F2F2F2"/>
<path opacity="0.28" d="M331.486 353.776C339.788 345.474 339.788 332.014 331.486 323.712C323.184 315.41 309.723 315.41 301.421 323.712C293.119 332.014 293.119 345.474 301.421 353.776C309.723 362.078 323.184 362.078 331.486 353.776Z" fill="#F2F2F2"/>
<path d="M333.041 320.436C324.789 312.959 312.802 312.125 303.734 317.575C302.805 314.06 300.877 310.889 298.183 308.448C295.488 306.007 292.144 304.4 288.554 303.821C293.087 294.262 291.092 282.428 282.826 274.937C272.734 265.789 257.07 266.574 247.934 276.657C238.797 286.741 239.557 302.401 249.654 311.549C253.702 315.196 258.835 317.415 264.265 317.866C268.033 318.15 271.817 317.574 275.33 316.182C278.843 314.79 281.994 312.618 284.546 309.831C284.724 309.633 284.915 309.422 285.08 309.212C285.659 309.224 286.226 309.25 286.793 309.302C289.728 309.629 292.367 310.764 294.409 312.613C296.451 314.463 297.839 316.978 298.452 319.866C298.568 320.431 298.65 321.003 298.698 321.577C298.505 321.761 298.327 321.957 298.148 322.155C293.854 326.897 291.574 333.125 291.793 339.519C291.856 341.786 292.234 344.034 292.916 346.198C294.226 350.364 296.626 354.105 299.868 357.032C309.96 366.18 325.611 365.408 334.76 355.312C343.908 345.215 343.137 329.589 333.041 320.436ZM265.365 312.216C261.765 312.05 258.287 310.865 255.336 308.798C252.384 306.73 250.082 303.866 248.697 300.539C247.312 297.213 246.902 293.561 247.515 290.01C248.127 286.459 249.737 283.156 252.156 280.485C259.188 272.726 271.224 272.119 278.997 279.163C286.024 285.529 287.173 296.006 282.103 303.695L282.089 303.709C281.563 304.52 280.971 305.287 280.32 306.003C279.945 306.424 279.549 306.825 279.133 307.205C276.601 309.563 273.461 311.166 270.067 311.836C268.519 312.157 266.938 312.286 265.359 312.22L265.365 312.216ZM303.701 352.823C300.424 349.866 298.289 345.854 297.667 341.484C297.444 339.921 297.415 338.336 297.582 336.766C297.913 333.323 299.198 330.04 301.293 327.287C301.63 326.834 301.991 326.399 302.373 325.984C303.021 325.265 303.726 324.6 304.48 323.995L304.494 323.982C311.647 318.182 322.186 318.295 329.213 324.66C332.948 328.044 335.185 332.773 335.433 337.806C335.681 342.84 333.92 347.766 330.536 351.5C327.152 355.235 322.423 357.472 317.389 357.72C312.356 357.968 307.43 356.207 303.695 352.823H303.701Z" fill="#636466"/>
<path d="M421.364 93.2951L369.39 281.597C368.816 283.72 367.828 285.709 366.482 287.45C365.137 289.19 363.461 290.647 361.551 291.738C359.64 292.829 357.533 293.531 355.351 293.805C353.168 294.078 350.953 293.918 348.832 293.333C346.712 292.747 344.728 291.749 342.994 290.395C341.261 289.04 339.812 287.357 338.732 285.441C337.651 283.525 336.96 281.414 336.698 279.23C336.435 277.046 336.607 274.831 337.204 272.714L346.614 238.61L179.69 192.548L216.688 58.476L421.364 93.2951Z" fill="white"/>
<g style="mix-blend-mode:multiply" opacity="0.2">
<path d="M354.748 130.652L353.586 134.864L206.788 94.3473L210.982 79.1484C236.034 88.0294 354.748 130.652 354.748 130.652Z" fill="#B6B6B6"/>
</g>
<g style="mix-blend-mode:multiply" opacity="0.2">
<path d="M364.434 135.161C359.536 133.803 354.323 134.136 349.638 136.108L327.845 215.079L351.318 221.558L337.199 272.718C335.518 278.811 336.45 284.773 339.229 288.48C343.56 286.686 347.483 281.908 349.21 275.65L363.231 224.845L380.001 164.07L380.274 163.082C381.068 160.208 381.287 157.207 380.921 154.248C380.554 151.29 379.608 148.433 378.137 145.84C376.666 143.248 374.699 140.97 372.348 139.138C369.997 137.305 367.308 135.954 364.434 135.161Z" fill="#B6B6B6"/>
</g>
<path d="M348.855 293.253L172.188 244.501C166.235 242.857 161.178 238.916 158.13 233.545C155.082 228.173 154.293 221.811 155.935 215.857L191.851 85.7097L331.113 124.138L325.075 146.019C326.492 140.85 329.701 136.353 334.128 133.332C334.652 132.969 335.195 132.63 335.75 132.316C339.655 130.1 344.129 129.092 348.606 129.419C353.083 129.746 357.363 131.393 360.904 134.153C364.445 136.912 367.089 140.66 368.5 144.921C369.911 149.183 370.027 153.767 368.833 158.095L337.202 272.718C336.025 276.987 336.591 281.548 338.776 285.399C340.962 289.25 344.587 292.075 348.855 293.253Z" fill="#787878"/>
<path d="M321.577 285.725L289.001 276.736L325.213 145.511C326.697 140.547 329.846 136.246 334.129 133.331C345.408 137.141 351.938 149.245 348.732 160.86L318.415 270.718C317.704 273.29 317.62 275.995 318.17 278.606C318.721 281.218 319.889 283.659 321.577 285.725Z" fill="#3D3D3D"/>
<path d="M259.596 383.29L325.072 146.014C326.676 140.212 330.517 135.284 335.753 132.313C340.989 129.342 347.19 128.572 352.993 130.171L153.709 75.1769C147.949 73.5896 141.794 74.3552 136.599 77.3054C131.403 80.2556 127.592 85.1488 126.004 90.9086L60.481 328.344L259.596 383.29Z" fill="white"/>
<path d="M155.088 131.715C159.277 127.526 159.277 120.735 155.088 116.546C150.899 112.357 144.108 112.357 139.919 116.546C135.731 120.735 135.731 127.526 139.919 131.715C144.108 135.903 150.899 135.903 155.088 131.715Z" fill="#E7E7E7"/>
<path d="M293.032 169.854L169.849 135.86C168.51 135.486 167.373 134.598 166.686 133.388C166 132.179 165.82 130.747 166.186 129.405L166.247 129.183C166.621 127.844 167.51 126.707 168.719 126.021C169.928 125.334 171.36 125.154 172.702 125.52L295.884 159.506C297.223 159.88 298.36 160.769 299.047 161.978C299.733 163.188 299.913 164.619 299.547 165.961L299.484 166.184C299.112 167.524 298.224 168.662 297.015 169.35C295.806 170.038 294.374 170.219 293.032 169.854Z" fill="#E7E7E7"/>
<path d="M137.721 170.303C143.645 170.303 148.447 165.501 148.447 159.578C148.447 153.654 143.645 148.852 137.721 148.852C131.797 148.852 126.995 153.654 126.995 159.578C126.995 165.501 131.797 170.303 137.721 170.303Z" fill="#E7E7E7"/>
<path d="M283.25 205.301L160.067 171.314C158.728 170.94 157.591 170.051 156.904 168.842C156.218 167.632 156.038 166.2 156.404 164.858L156.465 164.637C156.839 163.298 157.728 162.161 158.937 161.474C160.146 160.788 161.578 160.608 162.92 160.974L286.102 194.961C287.441 195.335 288.578 196.223 289.264 197.433C289.951 198.642 290.131 200.074 289.765 201.415L289.703 201.636C289.33 202.976 288.441 204.113 287.232 204.8C286.023 205.487 284.591 205.667 283.25 205.301Z" fill="#E7E7E7"/>
<path d="M127.938 205.752C133.861 205.752 138.663 200.95 138.663 195.026C138.663 189.102 133.861 184.3 127.938 184.3C122.014 184.3 117.212 189.102 117.212 195.026C117.212 200.95 122.014 205.752 127.938 205.752Z" fill="#E7E7E7"/>
<path d="M273.527 230.832L150.849 196.329C148.067 195.546 145.177 197.168 144.394 199.95L144.332 200.171C143.55 202.953 145.171 205.843 147.953 206.626L270.631 241.129C273.413 241.911 276.303 240.29 277.086 237.508L277.148 237.287C277.931 234.505 276.309 231.615 273.527 230.832Z" fill="#E7E7E7"/>
<path d="M125.741 238.058C129.93 233.869 129.93 227.078 125.741 222.889C121.553 218.701 114.761 218.701 110.573 222.889C106.384 227.078 106.384 233.869 110.573 238.058C114.761 242.246 121.553 242.246 125.741 238.058Z" fill="#E7E7E7"/>
<path d="M263.686 276.197L140.504 242.203C139.164 241.829 138.028 240.941 137.341 239.731C136.655 238.522 136.475 237.09 136.841 235.749L136.903 235.526C137.277 234.187 138.166 233.05 139.375 232.364C140.584 231.678 142.016 231.498 143.358 231.863L266.54 265.857C267.879 266.231 269.016 267.12 269.702 268.329C270.388 269.539 270.568 270.97 270.203 272.312L270.14 272.534C269.766 273.874 268.878 275.01 267.668 275.697C266.459 276.383 265.028 276.563 263.686 276.197Z" fill="#E7E7E7"/>
<path d="M115.958 273.506C120.147 269.317 120.147 262.526 115.958 258.337C111.77 254.148 104.978 254.149 100.79 258.337C96.6011 262.526 96.6011 269.317 100.79 273.506C104.978 277.694 111.77 277.694 115.958 273.506Z" fill="#E7E7E7"/>
<path d="M253.912 311.644L130.729 277.658C129.39 277.283 128.254 276.394 127.568 275.185C126.881 273.976 126.701 272.545 127.066 271.203L127.129 270.98C127.503 269.641 128.391 268.504 129.601 267.818C130.81 267.131 132.242 266.952 133.583 267.318L256.766 301.304C258.105 301.678 259.243 302.566 259.929 303.776C260.615 304.985 260.795 306.417 260.429 307.759L260.368 307.98C259.995 309.32 259.106 310.458 257.896 311.145C256.686 311.831 255.254 312.011 253.912 311.644Z" fill="#E7E7E7"/>
<path d="M106.176 308.954C110.365 304.765 110.365 297.974 106.176 293.785C101.987 289.597 95.196 289.597 91.0073 293.785C86.8186 297.974 86.8186 304.765 91.0073 308.954C95.196 313.143 101.987 313.143 106.176 308.954Z" fill="#E7E7E7"/>
<path d="M244.117 347.093L120.934 313.099C119.595 312.725 118.458 311.836 117.772 310.627C117.086 309.417 116.906 307.986 117.271 306.644L117.334 306.423C117.707 305.083 118.596 303.946 119.805 303.26C121.015 302.573 122.447 302.394 123.788 302.76L246.971 336.747C248.31 337.121 249.447 338.01 250.134 339.219C250.82 340.429 251 341.861 250.633 343.203L250.573 343.424C250.2 344.765 249.312 345.903 248.102 346.591C246.892 347.278 245.459 347.459 244.117 347.093Z" fill="#E7E7E7"/>
<path d="M132.639 165.991C132.275 165.891 131.934 165.721 131.637 165.489C131.339 165.257 131.09 164.969 130.904 164.64L126.627 157.101C126.265 156.439 126.178 155.662 126.384 154.936C126.591 154.211 127.074 153.596 127.73 153.223C128.386 152.851 129.162 152.752 129.89 152.946C130.619 153.141 131.242 153.615 131.624 154.264L134.484 159.31L147.377 151.995C147.705 151.802 148.069 151.676 148.446 151.624C148.824 151.573 149.208 151.597 149.577 151.695C149.945 151.794 150.29 151.965 150.591 152.198C150.893 152.431 151.145 152.721 151.333 153.053C151.521 153.384 151.642 153.75 151.687 154.129C151.733 154.507 151.702 154.891 151.598 155.257C151.494 155.624 151.318 155.966 151.08 156.264C150.842 156.562 150.547 156.809 150.213 156.992L134.821 165.726C134.493 165.912 134.131 166.031 133.757 166.076C133.382 166.122 133.002 166.093 132.639 165.991Z" fill="#F9C067"/>
<path d="M113.653 234.802C113.289 234.702 112.948 234.531 112.651 234.299C112.353 234.067 112.104 233.778 111.918 233.45L107.641 225.912C107.447 225.584 107.321 225.22 107.27 224.842C107.218 224.465 107.243 224.08 107.341 223.712C107.439 223.344 107.61 222.999 107.843 222.698C108.076 222.396 108.367 222.144 108.699 221.956C109.03 221.767 109.396 221.647 109.774 221.602C110.153 221.556 110.536 221.586 110.903 221.691C111.269 221.795 111.612 221.971 111.91 222.209C112.207 222.447 112.455 222.742 112.638 223.076L115.498 228.122L128.39 220.805C128.719 220.619 129.08 220.499 129.455 220.453C129.829 220.406 130.209 220.434 130.573 220.535C130.937 220.635 131.277 220.806 131.575 221.038C131.872 221.27 132.121 221.558 132.308 221.886C132.494 222.215 132.614 222.576 132.66 222.951C132.707 223.325 132.679 223.705 132.578 224.069C132.478 224.433 132.307 224.773 132.075 225.071C131.843 225.368 131.555 225.618 131.226 225.804L115.835 234.538C115.506 234.723 115.144 234.842 114.77 234.887C114.396 234.933 114.016 234.904 113.653 234.802Z" fill="#F9C067"/>
<path d="M103.582 271.289C103.218 271.189 102.877 271.018 102.579 270.786C102.282 270.554 102.033 270.266 101.847 269.937L97.5693 262.398C97.1932 261.735 97.0959 260.95 97.2986 260.215C97.5014 259.481 97.9877 258.857 98.6505 258.481C99.3134 258.104 100.098 258.007 100.833 258.21C101.568 258.413 102.192 258.899 102.568 259.562L105.426 264.608L118.32 257.293C118.649 257.096 119.013 256.968 119.392 256.914C119.771 256.861 120.157 256.883 120.527 256.981C120.898 257.079 121.244 257.249 121.548 257.483C121.851 257.717 122.104 258.009 122.293 258.341C122.482 258.674 122.602 259.042 122.647 259.422C122.692 259.802 122.661 260.187 122.555 260.555C122.449 260.923 122.27 261.266 122.03 261.564C121.79 261.861 121.492 262.108 121.155 262.29L105.765 271.015C105.437 271.202 105.075 271.322 104.7 271.37C104.326 271.417 103.946 271.389 103.582 271.289Z" fill="#F9C067"/>
<path d="M94.0892 305.69C93.7253 305.59 93.3847 305.42 93.0869 305.188C92.7892 304.956 92.5402 304.668 92.3543 304.339L88.0755 296.8C87.6994 296.137 87.602 295.352 87.8048 294.617C88.0076 293.883 88.4939 293.259 89.1567 292.883C89.8196 292.507 90.6047 292.409 91.3393 292.612C92.074 292.815 92.698 293.301 93.0741 293.964L95.934 299.01L108.827 291.693C109.489 291.317 110.275 291.22 111.009 291.422C111.744 291.625 112.368 292.111 112.744 292.774C113.12 293.437 113.217 294.222 113.015 294.957C112.812 295.692 112.326 296.316 111.663 296.692L96.2709 305.426C95.9426 305.611 95.5809 305.73 95.2064 305.776C94.832 305.821 94.4523 305.792 94.0892 305.69Z" fill="#F9C067"/>
<path d="M262.374 25.7318C269.48 25.7318 275.24 19.9715 275.24 12.8659C275.24 5.76025 269.48 0 262.374 0C255.269 0 249.508 5.76025 249.508 12.8659C249.508 19.9715 255.269 25.7318 262.374 25.7318Z" fill="#B6B6B6"/>
<path d="M25.4855 186.569C26.726 180.875 23.1156 175.253 17.4213 174.013C11.7271 172.772 6.1054 176.382 4.8649 182.077C3.6244 187.771 7.23485 193.393 12.9291 194.633C18.6233 195.874 24.245 192.263 25.4855 186.569Z" fill="#B6B6B6"/>
<path d="M397.661 370.611C404.766 370.611 410.527 364.851 410.527 357.746C410.527 350.64 404.766 344.88 397.661 344.88C390.555 344.88 384.795 350.64 384.795 357.746C384.795 364.851 390.555 370.611 397.661 370.611Z" fill="#B6B6B6"/>
</svg>
